<?xml version="1.0" encoding="utf-8"?>
<!-- Generator: Adobe Illustrator 16.0.0, SVG Export Plug-In . SVG Version: 6.00 Build 0)  -->
<!DOCTYPE svg PUBLIC "-//W3C//DTD SVG 1.1//EN" "http://www.w3.org/Graphics/SVG/1.1/DTD/svg11.dtd">
<svg version="1.1" id="Layer_1" xmlns="http://www.w3.org/2000/svg" xmlns:xlink="http://www.w3.org/1999/xlink" x="0px" y="0px"
	 width="1000px" height="439.262px" viewBox="-202.36 201.314 1000 439.262" enable-background="new -202.36 201.314 1000 439.262"
	 xml:space="preserve">
<g>
	<path d="M-152.009,207.023c6.646,0,11.87,2.452,15.547,7.322c3.679,4.839,5.517,11.677,5.517,20.354
		c0,9.225-2.097,16.482-6.258,21.547c-4.16,5.063-10.16,7.676-17.87,7.741h-0.096v-12.935h0.096
		c4.806-0.065,8.29-1.517,10.355-4.323c2.097-2.806,3.128-6.999,3.128-12.418c0-4.42-0.838-7.838-2.516-10.193
		c-1.678-2.322-4.097-3.483-7.225-3.483c-2.646,0-4.678,1-6.033,2.968c-1.387,1.999-2.645,5.677-3.71,10.935l-1.16,5.742
		c-1.355,7.289-3.806,12.837-7.258,16.482c-3.45,3.645-7.999,5.483-13.515,5.483c-5.871,0-10.613-2.258-14.097-6.741
		c-3.483-4.451-5.258-10.709-5.258-18.611c0-8.968,1.937-15.87,5.774-20.516c3.806-4.613,9.258-7.096,16.16-7.354h0.098v12.741
		h-0.098c-3.839,0.258-6.709,1.548-8.547,3.838c-1.839,2.291-2.742,6.033-2.742,11.097c0,3.902,0.741,6.967,2.192,9.031
		c1.453,2.064,3.517,3.129,6.128,3.129c2.711,0,4.808-0.968,6.227-2.87c1.451-1.936,2.709-5.419,3.71-10.354l1.16-5.935
		c1.582-7.968,4-13.773,7.162-17.321C-161.975,208.83-157.556,207.023-152.009,207.023z M-165.135,579.611
		c-3.162,3.549-5.549,9.354-7.162,17.322l-1.16,5.936c-1.001,4.935-2.259,8.418-3.71,10.354c-1.451,1.903-3.548,2.871-6.227,2.871
		c-2.645,0-4.708-1.032-6.128-3.129c-1.451-2.063-2.192-5.128-2.192-9.032c0-5.063,0.935-8.773,2.742-11.095
		c1.838-2.292,4.708-3.581,8.547-3.839h0.098v-12.742h-0.098c-6.902,0.26-12.321,2.742-16.16,7.355
		c-3.838,4.644-5.774,11.547-5.774,20.546c0,7.903,1.774,14.161,5.227,18.645c3.483,4.484,8.226,6.741,14.095,6.741
		c5.516,0,10.064-1.839,13.517-5.516c3.45-3.644,5.869-9.192,7.256-16.481l1.162-5.742c1.065-5.259,2.323-8.936,3.71-10.935
		c1.387-1.968,3.419-2.969,6.031-2.969c3.129,0,5.58,1.162,7.227,3.483c1.676,2.323,2.515,5.775,2.515,10.193
		c0,5.451-1.063,9.612-3.129,12.419c-2.063,2.807-5.548,4.258-10.354,4.322h-0.098v12.936h0.098
		c7.708-0.064,13.741-2.678,17.87-7.742c4.128-5.064,6.258-12.322,6.258-21.547c0-8.645-1.871-15.516-5.517-20.353
		c-3.677-4.84-8.902-7.322-15.547-7.322C-157.556,574.291-161.975,576.063-165.135,579.611z M-132.492,413.075v13.546l-0.066,0.033
		c-1.935,1.161-4.676,1.773-8.192,1.84l-7.451,0.289c-4.096,0.194-7,1.129-8.58,2.807c-1.612,1.677-2.418,4.354-2.418,8.031v16.741
		h26.708v13.129h-68.352v-31.03c0-1.549,0.064-3.033,0.227-4.453c0,0.453,0,0.903,0,1.42c0.354-5.289,1.645-9.676,3.903-13.096
		c-0.195,0.227-0.389,0.484-0.55,0.71c0.483-0.839,1.033-1.612,1.646-2.322c3.451-4.225,8.226-6.354,14.161-6.354
		c8.063,0,13.546,3.773,16.257,11.193c1.097-3.323,2.805-5.742,5.063-7.193c2.323-1.518,5.516-2.323,9.483-2.452l10.16-0.581
		c3.226-0.064,5.871-0.774,7.903-2.097L-132.492,413.075z M-180.039,427.815c-3.193,0-5.677,1.031-7.387,3.064
		c-1.709,2.032-2.548,5-2.548,8.772v16.646h20.482v-17.129c0-3.579-0.903-6.419-2.709-8.418
		C-174.007,428.815-176.651,427.815-180.039,427.815z M-200.844,385.593h68.352v-13.128h-68.352V385.593z M-189.039,290.244h-11.805
		v50.448h68.352v-50.448h-11.775v37.32h-17.354v-33.771h-11.289v33.804h-16.129V290.244z M-189.039,497.553h-11.805v50.449h68.352
		v-50.449h-11.775v37.32h-17.354v-33.772h-11.289v33.804h-16.129V497.553z M-102.786,631.222h90.736l68.932-94.864l-45.386-62.415
		L-102.786,631.222z M294.672,209.023h-90.735l-56.384,77.608l45.353,62.447L294.672,209.023z M0.466,209.023H-90.27
		l306.755,422.198h90.734L0.466,209.023z"/>
	<rect x="367.926" y="209.023" width="18.643" height="422.198"/>
	<g>
		<path d="M493.401,402.43c15.902,14.193,32.644,22.612,60.222,30.87l43.418-59.609c-24.58-6.322-31.45-10.547-41.644-18.87
			c-12.226-9.257-15.516-18.935-15.516-37.126c0-17.806,6-28.966,19.709-38.61c13.806-9.677,27.838-12.838,53.996-12.838
			c71.608,0,93.993,32.03,111.509,57.318l40.805-56.996c-5.936-9.226-19.322-24.257-27.967-31.644
			c-26.579-22.61-72.189-33.61-124.927-33.61c-43.708,0-86.221,10.354-111.864,30.159c-25.676,19.838-43.965,54.126-43.965,87.35
			C457.178,352.047,472.24,383.561,493.401,402.43z"/>
		<path d="M762.706,428.654c-18.74-17.709-45.255-28.61-87.188-38.319l-44.384,60.77l6.87,1.581
			c34.095,7.482,45.61,15.288,58.674,24.836c10.032,7.322,17.451,18.226,17.451,35.676c0,21.579-4.808,34.386-20.612,45.706
			c-15.869,11.387-34.288,16.129-63.803,16.129c-50.416,0-101.219-21.773-123.218-75.833l-44.707,61.026
			c7.291,13.774,23.258,33.418,35.417,43.354c29.579,24.126,77.543,36.997,130.604,36.997c48.965,0,96.285-12.419,123.863-34.095
			c30.578-24.063,45.966-50.933,45.966-94.865C797.575,475.748,787.349,451.942,762.706,428.654z"/>
	</g>
</g>
</svg>
